<svg width="1440" height="1430" viewBox="0 0 1440 1430" fill="none" xmlns="http://www.w3.org/2000/svg">
<g clip-path="url(#clip0_9179_14288)">
<g clip-path="url(#clip1_9179_14288)">
<g clip-path="url(#clip2_9179_14288)">
<path d="M487.075 177.7L505.637 196.261L505.173 196.725L486.611 178.164L487.075 177.7Z" fill="#2B1B38"/>
<path d="M486.611 196.261L505.173 177.7L505.637 178.164L487.075 196.725L486.611 196.261Z" fill="#2B1B38"/>
</g>
</g>
<g clip-path="url(#clip3_9179_14288)">
<g clip-path="url(#clip4_9179_14288)">
<path d="M940.825 177.7L959.387 196.261L958.923 196.725L940.361 178.164L940.825 177.7Z" fill="#2B1B38"/>
<path d="M940.361 196.261L958.923 177.7L959.387 178.164L940.825 196.725L940.361 196.261Z" fill="#2B1B38"/>
</g>
</g>
<rect x="519.75" y="325.932" width="2.25" height="2.25" rx="1.125" fill="#64E5A0"/>
<rect x="924" y="325.932" width="2.25" height="2.25" rx="1.125" fill="#64E5A0"/>
<rect x="924" y="211.182" width="2.25" height="2.25" rx="1.125" fill="#64E5A0"/>
<rect x="519.75" y="211.182" width="2.25" height="2.25" rx="1.125" fill="#64E5A0"/>
<rect x="520.25" y="452.25" width="2.25" height="2.25" rx="1.125" fill="#64E5A0"/>
<rect x="923.5" y="452.25" width="2.25" height="2.25" rx="1.125" fill="#64E5A0"/>
<g clip-path="url(#clip5_9179_14288)">
<g clip-path="url(#clip6_9179_14288)">
<path d="M487.075 410.927L505.637 429.489L505.173 429.953L486.611 411.391L487.075 410.927Z" fill="#2B1B38"/>
<path d="M486.611 429.489L505.173 410.927L505.637 411.391L487.075 429.953L486.611 429.489Z" fill="#2B1B38"/>
</g>
</g>
<g clip-path="url(#clip7_9179_14288)">
<g clip-path="url(#clip8_9179_14288)">
<path d="M940.825 410.927L959.387 429.489L958.923 429.953L940.361 411.391L940.825 410.927Z" fill="#2B1B38"/>
<path d="M940.361 429.489L958.923 410.927L959.387 411.391L940.825 429.953L940.361 429.489Z" fill="#2B1B38"/>
</g>
</g>
<rect x="1.5" y="492.41" width="2.25" height="2.25" rx="1.125" fill="#D387FF"/>
<g clip-path="url(#clip9_9179_14288)">
<rect width="1920" height="1734" transform="translate(-240 -25)" fill="url(#paint0_radial_9179_14288)" fill-opacity="0.7"/>
<g opacity="0.15" filter="url(#filter0_f_9179_14288)">
<rect x="-44" y="517" width="200" height="1059.66" rx="100" fill="#95EFCF"/>
</g>
<g opacity="0.15" filter="url(#filter1_f_9179_14288)">
<rect x="1284" y="517" width="200" height="1059.66" rx="100" fill="#95EFCF"/>
</g>
<rect width="1920" height="421" transform="translate(-240)" fill="url(#paint1_linear_9179_14288)"/>
<path d="M386 671H1054V1709H386V671Z" fill="url(#paint2_linear_9179_14288)"/>
</g>
</g>
<defs>
<filter id="filter0_f_9179_14288" x="-244" y="317" width="600" height="1459.66" filterUnits="userSpaceOnUse" color-interpolation-filters="sRGB">
<feFlood flood-opacity="0" result="BackgroundImageFix"/>
<feBlend mode="normal" in="SourceGraphic" in2="BackgroundImageFix" result="shape"/>
<feGaussianBlur stdDeviation="100" result="effect1_foregroundBlur_9179_14288"/>
</filter>
<filter id="filter1_f_9179_14288" x="1084" y="317" width="600" height="1459.66" filterUnits="userSpaceOnUse" color-interpolation-filters="sRGB">
<feFlood flood-opacity="0" result="BackgroundImageFix"/>
<feBlend mode="normal" in="SourceGraphic" in2="BackgroundImageFix" result="shape"/>
<feGaussianBlur stdDeviation="100" result="effect1_foregroundBlur_9179_14288"/>
</filter>
<radialGradient id="paint0_radial_9179_14288" cx="0" cy="0" r="1" gradientUnits="userSpaceOnUse" gradientTransform="translate(978.5 1017.46) rotate(-90) scale(1017.46 1039.17)">
<stop offset="0.11" stop-color="#051F11"/>
<stop offset="1" stop-color="#010901" stop-opacity="0"/>
</radialGradient>
<linearGradient id="paint1_linear_9179_14288" x1="960" y1="0" x2="960" y2="421" gradientUnits="userSpaceOnUse">
<stop offset="0.12" stop-color="#010901"/>
<stop offset="1" stop-color="#010901" stop-opacity="0"/>
</linearGradient>
<linearGradient id="paint2_linear_9179_14288" x1="720" y1="671" x2="720" y2="1709" gradientUnits="userSpaceOnUse">
<stop stop-color="#D387FF" stop-opacity="0"/>
<stop offset="1" stop-color="#D387FF" stop-opacity="0.05"/>
</linearGradient>
<clipPath id="clip0_9179_14288">
<rect width="1440" height="1430" fill="white"/>
</clipPath>
<clipPath id="clip1_9179_14288">
<rect width="21" height="21" fill="white" transform="translate(485.625 176.712)"/>
</clipPath>
<clipPath id="clip2_9179_14288">
<rect width="21" height="21" fill="white" transform="translate(485.625 176.712)"/>
</clipPath>
<clipPath id="clip3_9179_14288">
<rect width="21" height="21" fill="white" transform="translate(939.375 176.712)"/>
</clipPath>
<clipPath id="clip4_9179_14288">
<rect width="21" height="21" fill="white" transform="translate(939.375 176.712)"/>
</clipPath>
<clipPath id="clip5_9179_14288">
<rect width="21" height="21" fill="white" transform="translate(485.625 409.94)"/>
</clipPath>
<clipPath id="clip6_9179_14288">
<rect width="21" height="21" fill="white" transform="translate(485.625 409.94)"/>
</clipPath>
<clipPath id="clip7_9179_14288">
<rect width="21" height="21" fill="white" transform="translate(939.375 409.94)"/>
</clipPath>
<clipPath id="clip8_9179_14288">
<rect width="21" height="21" fill="white" transform="translate(939.375 409.94)"/>
</clipPath>
<clipPath id="clip9_9179_14288">
<rect width="1920" height="1734" fill="white" transform="translate(-240 -25)"/>
</clipPath>
</defs>
</svg>
